<?xml version="1.0" standalone="no"?><!DOCTYPE svg PUBLIC "-//W3C//DTD SVG 1.1//EN" "http://www.w3.org/Graphics/SVG/1.1/DTD/svg11.dtd"><svg t="1515074680169" class="icon" style="" viewBox="0 0 1024 1024" version="1.1" xmlns="http://www.w3.org/2000/svg" p-id="1414" xmlns:xlink="http://www.w3.org/1999/xlink" width="32" height="32"><defs><style type="text/css"></style></defs><path d="M611.163999 818.320571c-224.492914 0-407.114185-182.620247-407.114185-407.114185 0-224.492914 182.621271-407.114185 407.114185-407.114185s407.114185 182.621271 407.114185 407.114185C1018.318092 635.700323 835.697845 818.320571 611.163999 818.320571L611.163999 818.320571zM611.163999 125.814474c-157.347654 0-285.390889 128.009466-285.390889 285.391912 0 157.38961 128.005372 285.400099 285.390889 285.400099 157.382447 0 285.392936-128.011512 285.392936-285.400099C896.59582 253.823939 768.551562 125.814474 611.163999 125.814474L611.163999 125.814474zM314.682517 582.478168l86.067214 86.068238L91.766518 977.535759l-86.068238-86.067214L314.682517 582.478168 314.682517 582.478168zM101.378433 592.049151l284.164968 284.172131-86.066191 86.068238L15.308149 678.118412 101.378433 592.049151 101.378433 592.049151zM101.378433 592.049151" p-id="1415" fill="#d4237a"></path></svg>