<?xml version="1.0" standalone="no"?><!DOCTYPE svg PUBLIC "-//W3C//DTD SVG 1.1//EN" "http://www.w3.org/Graphics/SVG/1.1/DTD/svg11.dtd"><svg t="1515074298842" class="icon" style="" viewBox="0 0 1024 1024" version="1.1" xmlns="http://www.w3.org/2000/svg" p-id="551" xmlns:xlink="http://www.w3.org/1999/xlink" width="48" height="48"><defs><style type="text/css"></style></defs><path d="M384 384c140.8 0 256 115.2 256 256s-115.2 256-256 256-256-115.2-256-256 115.2-256 256-256m0-128c-211.2 0-384 172.8-384 384s172.8 384 384 384 384-172.8 384-384-172.8-384-384-384z" fill="#1296db" p-id="552"></path><path d="M934.4 0L569.6 364.8l89.6 89.6L1024 89.6 934.4 0z" fill="#1296db" p-id="553"></path><path d="M1024 0h-384v128h384V0z" fill="#1296db" p-id="554"></path><path d="M1024 0h-128v384h128V0z" fill="#1296db" p-id="555"></path></svg>